<mxfile host="app.diagrams.net" agent="Mozilla/5.0 (Windows NT 10.0; Win64; x64) AppleWebKit/537.36 (KHTML, like Gecko) Chrome/131.0.0.0 Safari/537.36" version="25.0.1">
  <diagram name="Page-1" id="LKM00lNe5sy2Xs7_TfB4">
    <mxGraphModel dx="2757" dy="1457" grid="1" gridSize="10" guides="1" tooltips="1" connect="1" arrows="1" fold="1" page="1" pageScale="1" pageWidth="850" pageHeight="1100" math="0" shadow="0">
      <root>
        <mxCell id="0" />
        <mxCell id="1" parent="0" />
        <mxCell id="__S3OjK77hRlp4o364sg-3" value="" style="edgeStyle=orthogonalEdgeStyle;rounded=0;orthogonalLoop=1;jettySize=auto;html=1;" edge="1" parent="1" source="__S3OjK77hRlp4o364sg-1" target="__S3OjK77hRlp4o364sg-2">
          <mxGeometry relative="1" as="geometry" />
        </mxCell>
        <mxCell id="__S3OjK77hRlp4o364sg-1" value="start" style="strokeWidth=2;html=1;shape=mxgraph.flowchart.start_1;whiteSpace=wrap;" vertex="1" parent="1">
          <mxGeometry x="340" y="30" width="100" height="60" as="geometry" />
        </mxCell>
        <mxCell id="__S3OjK77hRlp4o364sg-10" value="" style="edgeStyle=orthogonalEdgeStyle;rounded=0;orthogonalLoop=1;jettySize=auto;html=1;" edge="1" parent="1" source="__S3OjK77hRlp4o364sg-2" target="__S3OjK77hRlp4o364sg-9">
          <mxGeometry relative="1" as="geometry" />
        </mxCell>
        <mxCell id="__S3OjK77hRlp4o364sg-2" value="กำหนดตัวแปร x1,x2&lt;div&gt;y1,y2 midx,midy&lt;/div&gt;" style="whiteSpace=wrap;html=1;strokeWidth=2;" vertex="1" parent="1">
          <mxGeometry x="330" y="130" width="120" height="60" as="geometry" />
        </mxCell>
        <mxCell id="__S3OjK77hRlp4o364sg-17" value="" style="edgeStyle=orthogonalEdgeStyle;rounded=0;orthogonalLoop=1;jettySize=auto;html=1;" edge="1" parent="1" source="__S3OjK77hRlp4o364sg-4" target="__S3OjK77hRlp4o364sg-16">
          <mxGeometry relative="1" as="geometry" />
        </mxCell>
        <mxCell id="__S3OjK77hRlp4o364sg-4" value="รับค่าจากผู้ใช้ x1 y1" style="shape=parallelogram;perimeter=parallelogramPerimeter;whiteSpace=wrap;html=1;fixedSize=1;strokeWidth=2;" vertex="1" parent="1">
          <mxGeometry x="330" y="310" width="120" height="60" as="geometry" />
        </mxCell>
        <mxCell id="__S3OjK77hRlp4o364sg-13" style="edgeStyle=orthogonalEdgeStyle;rounded=0;orthogonalLoop=1;jettySize=auto;html=1;" edge="1" parent="1" source="__S3OjK77hRlp4o364sg-9" target="__S3OjK77hRlp4o364sg-4">
          <mxGeometry relative="1" as="geometry" />
        </mxCell>
        <mxCell id="__S3OjK77hRlp4o364sg-9" value="แสดง in put a point" style="shape=parallelogram;perimeter=parallelogramPerimeter;whiteSpace=wrap;html=1;fixedSize=1;strokeWidth=2;" vertex="1" parent="1">
          <mxGeometry x="330" y="220" width="120" height="60" as="geometry" />
        </mxCell>
        <mxCell id="__S3OjK77hRlp4o364sg-19" value="" style="edgeStyle=orthogonalEdgeStyle;rounded=0;orthogonalLoop=1;jettySize=auto;html=1;" edge="1" parent="1" source="__S3OjK77hRlp4o364sg-14" target="__S3OjK77hRlp4o364sg-18">
          <mxGeometry relative="1" as="geometry" />
        </mxCell>
        <mxCell id="__S3OjK77hRlp4o364sg-14" value="รับค่าจากผู้ใช้ x2 y2" style="shape=parallelogram;perimeter=parallelogramPerimeter;whiteSpace=wrap;html=1;fixedSize=1;strokeWidth=2;" vertex="1" parent="1">
          <mxGeometry x="330" y="490" width="120" height="60" as="geometry" />
        </mxCell>
        <mxCell id="__S3OjK77hRlp4o364sg-15" style="edgeStyle=orthogonalEdgeStyle;rounded=0;orthogonalLoop=1;jettySize=auto;html=1;" edge="1" parent="1" source="__S3OjK77hRlp4o364sg-16" target="__S3OjK77hRlp4o364sg-14">
          <mxGeometry relative="1" as="geometry" />
        </mxCell>
        <mxCell id="__S3OjK77hRlp4o364sg-16" value="แสดง in put b point" style="shape=parallelogram;perimeter=parallelogramPerimeter;whiteSpace=wrap;html=1;fixedSize=1;strokeWidth=2;" vertex="1" parent="1">
          <mxGeometry x="330" y="400" width="120" height="60" as="geometry" />
        </mxCell>
        <mxCell id="__S3OjK77hRlp4o364sg-21" value="" style="edgeStyle=orthogonalEdgeStyle;rounded=0;orthogonalLoop=1;jettySize=auto;html=1;" edge="1" parent="1" source="__S3OjK77hRlp4o364sg-18" target="__S3OjK77hRlp4o364sg-20">
          <mxGeometry relative="1" as="geometry" />
        </mxCell>
        <mxCell id="__S3OjK77hRlp4o364sg-18" value="คำนวนค่าจุกกลางสูตร&lt;div&gt;(x1 + x2) / 2&lt;/div&gt;" style="whiteSpace=wrap;html=1;strokeWidth=2;" vertex="1" parent="1">
          <mxGeometry x="330" y="630" width="120" height="60" as="geometry" />
        </mxCell>
        <mxCell id="__S3OjK77hRlp4o364sg-23" value="" style="edgeStyle=orthogonalEdgeStyle;rounded=0;orthogonalLoop=1;jettySize=auto;html=1;" edge="1" parent="1" source="__S3OjK77hRlp4o364sg-20" target="__S3OjK77hRlp4o364sg-22">
          <mxGeometry relative="1" as="geometry" />
        </mxCell>
        <mxCell id="__S3OjK77hRlp4o364sg-20" value="คำนวนค่าจุกกลางสูตร&lt;div&gt;(y1 + y2) / 2&lt;/div&gt;" style="whiteSpace=wrap;html=1;strokeWidth=2;" vertex="1" parent="1">
          <mxGeometry x="330" y="720" width="120" height="60" as="geometry" />
        </mxCell>
        <mxCell id="__S3OjK77hRlp4o364sg-25" value="" style="edgeStyle=orthogonalEdgeStyle;rounded=0;orthogonalLoop=1;jettySize=auto;html=1;" edge="1" parent="1" source="__S3OjK77hRlp4o364sg-22" target="__S3OjK77hRlp4o364sg-24">
          <mxGeometry relative="1" as="geometry" />
        </mxCell>
        <mxCell id="__S3OjK77hRlp4o364sg-22" value="แสดงค่า Mid Point of A and B is" style="shape=parallelogram;perimeter=parallelogramPerimeter;whiteSpace=wrap;html=1;fixedSize=1;strokeWidth=2;" vertex="1" parent="1">
          <mxGeometry x="290" y="860" width="200" height="100" as="geometry" />
        </mxCell>
        <mxCell id="__S3OjK77hRlp4o364sg-24" value="" style="strokeWidth=2;html=1;shape=mxgraph.flowchart.start_1;whiteSpace=wrap;" vertex="1" parent="1">
          <mxGeometry x="340" y="1000" width="100" height="60" as="geometry" />
        </mxCell>
      </root>
    </mxGraphModel>
  </diagram>
</mxfile>
